PathFileType	4	(X/Y/Z)	./resultDataOpenSim/trcMotMarkerGrf/sub06/qtm-04-01.trc
DataRate	CameraRate	NumFrames	NumMarkers	Units	OrigDataRate	OrigDataStartFrame	OrigNumFrames
250.000000	250.000000	9	24	m	250.000000	129	513
Frame#	Time	L.Toe.Tip			R.Toe.Tip			L.Ankle.Lat			R.Ankle.Lat			L.Ankle.Med			R.Ankle.Med			L.Heel			R.Heel			L.Knee.Lat			R.Knee.Lat			L.Knee.Med			R.Knee.Med			L.Thigh.Upper			R.Thigh.Upper			L.ASIS			R.ASIS			V.Sacral			L.Acromium			R.Acromium			C7			L.Elbow			R.Elbow			L.Wrist.Lat			R.Wrist.Lat
		X1	Y1	Z1	X2	Y2	Z2	X3	Y3	Z3	X4	Y4	Z4	X5	Y5	Z5	X6	Y6	Z6	X7	Y7	Z7	X8	Y8	Z8	X9	Y9	Z9	X10	Y10	Z10	X11	Y11	Z11	X12	Y12	Z12	X13	Y13	Z13	X14	Y14	Z14	X15	Y15	Z15	X16	Y16	Z16	X17	Y17	Z17	X18	Y18	Z18	X19	Y19	Z19	X20	Y20	Z20	X21	Y21	Z21	X22	Y22	Z22	X23	Y23	Z23	X24	Y24	Z24

129	0.512	-0.1241772	0.1381541	-0.039652739	-0.8598601	0.034936342	0.089281301	-0.24961576	0.10820537	-0.063715806	-0.99225165	0.068115003	0.10582875	-0.25772366	0.12429994	0.020391665	-0.96493202	0.085223179	0.019903911	-0.29465285	0.044671734	-0.01505208	-1.0467589	0.051920273	0.040663204	-0.41385807	0.43695331	-0.069528504	-0.79408863	0.40727883	0.1479314	-0.43529532	0.42177524	0.054546028	-0.81861355	0.4133854	0.015679216	-0.61028427	0.76796465	-0.12740616	-0.6900695	0.75371099	0.21606029	-0.5525176	0.8116648	-0.070574585	-0.57861261	0.80088083	0.17907014	-0.75113431	0.88479023	0.045823329	-0.63480087	1.2915207	-0.13214174	-0.62044328	1.2803815	0.22959062	-0.70306511	1.3261022	0.051427818	-0.74786707	1.0007456	-0.18142383	-0.63111201	0.96266934	0.32401011	-0.66545642	0.77596248	-0.23852294	-0.38646227	0.9079736	0.29145729
130	0.516	-0.11483004	0.13759487	-0.038946469	-0.85978343	0.034923077	0.089275499	-0.24005418	0.1069832	-0.062809568	-0.99172357	0.068897082	0.10570517	-0.2483857	0.1230787	0.021188297	-0.96424704	0.08572709	0.019803304	-0.28479264	0.043259611	-0.013951251	-1.0464061	0.053164019	0.04047545	-0.40578651	0.43489266	-0.068996884	-0.78964685	0.40569583	0.14789479	-0.42743228	0.41964971	0.055076882	-0.81316288	0.41178056	0.015673941	-0.60226898	0.76533806	-0.12717528	-0.68370034	0.75154708	0.21538677	-0.54439493	0.80890317	-0.070156203	-0.57219291	0.79841214	0.17935645	-0.74350487	0.88246884	0.045353665	-0.6287139	1.2888985	-0.13236689	-0.6143635	1.2778435	0.22962633	-0.69679166	1.3235649	0.05129005	-0.74146274	0.99804592	-0.18107935	-0.62233851	0.95972021	0.32309104	-0.66048821	0.77309678	-0.23869458	-0.37850252	0.90655543	0.29081823
131	0.52	-0.10593103	0.13656361	-0.038196396	-0.85969948	0.034914273	0.089274368	-0.23092753	0.10547978	-0.061926303	-0.99113572	0.06976445	0.10562706	-0.23936101	0.12160133	0.022026479	-0.96338059	0.086272627	0.019680192	-0.27546501	0.041623387	-0.012982995	-1.0459505	0.054555819	0.040253252	-0.39764779	0.43279427	-0.068483681	-0.78515757	0.40413609	0.14783767	-0.41943773	0.41756895	0.055583369	-0.8075917	0.41012855	0.015676943	-0.59420967	0.76283856	-0.12693392	-0.67709233	0.74929365	0.21452142	-0.53623031	0.80617293	-0.069692622	-0.56585744	0.79597485	0.17972433	-0.73591865	0.88009549	0.044735541	-0.62246331	1.2863097	-0.13256955	-0.60830458	1.2753366	0.22963045	-0.69062474	1.3210321	0.051170942	-0.73499036	0.99536394	-0.18072906	-0.61345832	0.95674241	0.32196973	-0.65543105	0.77025401	-0.23885717	-0.37061639	0.90503364	0.29018527
132	0.524	-0.097420883	0.13508295	-0.037342066	-0.85960021	0.034907922	0.089273787	-0.22223095	0.10369787	-0.061069701	-0.99047163	0.070717632	0.10561601	-0.23069967	0.11984758	0.022877201	-0.96239408	0.086891166	0.019577371	-0.26667624	0.039752767	-0.012118197	-1.0455095	0.056125144	0.040110558	-0.38946725	0.43068362	-0.067986647	-0.78057026	0.40259816	0.14779074	-0.41132474	0.41554697	0.0560504	-0.80193687	0.40845018	0.015669768	-0.58611763	0.76045481	-0.12669127	-0.67060627	0.74696558	0.2137917	-0.52807146	0.80347337	-0.069172836	-0.559583	0.79359543	0.18027159	-0.72837175	0.8776625	0.04396725	-0.61601962	1.2837532	-0.13274355	-0.60218065	1.2728715	0.22959901	-0.68443686	1.318468	0.051055865	-0.72846175	0.99271965	-0.18037615	-0.60509067	0.95401218	0.32126338	-0.65024613	0.76743034	-0.23903799	-0.36278806	0.90340397	0.28955832
133	0.528	-0.089273207	0.13316617	-0.036375197	-0.85947861	0.034904715	0.089272431	-0.21395503	0.10164346	-0.060231638	-0.98971491	0.071770041	0.1056785	-0.22242712	0.11780987	0.023729019	-0.96138267	0.087614236	0.019531529	-0.25842766	0.037649028	-0.011318849	-1.0451184	0.057869637	0.040097504	-0.38129383	0.42858557	-0.067510081	-0.77587108	0.40108896	0.14777939	-0.40310288	0.41360459	0.05646902	-0.79623443	0.40675794	0.015660834	-0.57800006	0.75817145	-0.12645265	-0.66472155	0.74466722	0.21376961	-0.51993286	0.80080323	-0.068591338	-0.5532672	0.79127426	0.18098472	-0.72087016	0.87518088	0.043091889	-0.60952236	1.2812265	-0.13292423	-0.59593768	1.2704464	0.22953198	-0.67810755	1.3158673	0.050935062	-0.72187573	0.99011966	-0.18002462	-0.59747075	0.95163561	0.32123108	-0.6449363	0.7646246	-0.23924189	-0.3549527	0.90166113	0.28892901
134	0.532	-0.081496038	0.13082347	-0.03534899	-0.85934722	0.03490907	0.089284796	-0.20608838	0.099318986	-0.059400641	-0.98886418	0.072928934	0.10580568	-0.21456042	0.11548616	0.024570452	-0.96041795	0.088457325	0.019559694	-0.25070752	0.035321911	-0.01057067	-1.0446917	0.05975811	0.040175568	-0.37312219	0.42650679	-0.06706909	-0.77107136	0.39961699	0.14781208	-0.39477845	0.4117641	0.056840655	-0.7904998	0.40505945	0.015675865	-0.56983596	0.75598243	-0.12621785	-0.65960923	0.74252983	0.21469604	-0.51181615	0.79816067	-0.067950364	-0.54676918	0.78898718	0.18172114	-0.71343746	0.87269279	0.042203524	-0.60308292	1.2787233	-0.13314356	-0.5895839	1.2680534	0.22943135	-0.67161665	1.3132905	0.050792919	-0.7152261	0.98755838	-0.17968368	-0.59021077	0.94943609	0.32152464	-0.63955945	0.76184298	-0.23945455	-0.34706201	0.89981247	0.28829186
135	0.536	-0.074107281	0.12806821	-0.034329523	-0.85924251	0.034923485	0.089338419	-0.19862452	0.096724082	-0.058571427	-0.98793487	0.074201567	0.10597804	-0.20712468	0.11287342	0.025378357	-0.95948057	0.089415198	0.019663016	-0.24349582	0.032783727	-0.0098724693	-1.0441458	0.061776258	0.040300216	-0.36486273	0.42444252	-0.066684484	-0.76617511	0.39818189	0.14788074	-0.38635948	0.41003964	0.057170829	-0.78471262	0.40336029	0.015724478	-0.56159052	0.75388275	-0.12598563	-0.65484421	0.74058599	0.21605827	-0.50370789	0.79555588	-0.067254691	-0.54001477	0.78671234	0.18234779	-0.70609109	0.87026108	0.041412215	-0.59665151	1.2762391	-0.13339584	-0.58315004	1.2656897	0.22929591	-0.66505082	1.3108139	0.050600761	-0.70850449	0.98502588	-0.17935971	-0.58283169	0.94720386	0.32168798	-0.63413989	0.75909944	-0.23966068	-0.33915563	0.89787966	0.28765456
136	0.54	-0.067118858	0.12491386	-0.03335402	-0.85917943	0.034938351	0.089435673	-0.19156446	0.093862814	-0.057745108	-0.98692976	0.075604807	0.10617732	-0.20011293	0.10998971	0.02614848	-0.95846172	0.090471976	0.019828617	-0.23677248	0.030043543	-0.0092070559	-1.0434793	0.063942268	0.040467169	-0.35642184	0.42241296	-0.066335036	-0.7611608	0.39677468	0.14798421	-0.3778549	0.40843255	0.057467446	-0.7788278	0.4016608	0.015797497	-0.55324186	0.75185905	-0.12575536	-0.64980118	0.7387606	0.21709381	-0.49555722	0.79303143	-0.066510589	-0.53304888	0.78444736	0.18283624	-0.69881844	0.867938	0.040795294	-0.59014232	1.2737848	-0.13366914	-0.57665352	1.2633589	0.22912417	-0.65850124	1.3084401	0.050344656	-0.70170183	0.98251396	-0.17904454	-0.57520531	0.94489318	0.3215878	-0.62859646	0.75641452	-0.23984594	-0.33131125	0.89587693	0.287029
137	0.544	-0.06053262	0.12137908	-0.032430129	-0.8591111	0.034935658	0.089535079	-0.18491056	0.09074622	-0.056923685	-0.98582119	0.077140436	0.10640218	-0.1934644	0.10688478	0.026914659	-0.95728512	0.091619535	0.020049069	-0.23052419	0.027108745	-0.0085390457	-1.0427333	0.066280457	0.040686591	-0.34784338	0.42045594	-0.065966196	-0.75600479	0.39537875	0.14813121	-0.36927829	0.40693216	0.05773992	-0.77281799	0.39996003	0.015895074	-0.54477193	0.74989847	-0.12553099	-0.64412098	0.7369699	0.21743777	-0.48731166	0.7906314	-0.065731256	-0.5259678	0.78220332	0.18322251	-0.69158393	0.86574333	0.040376677	-0.58355254	1.2713861	-0.13397597	-0.57009842	1.2610662	0.2289201	-0.6519762	1.3060899	0.050043758	-0.69481007	0.98002326	-0.17871495	-0.56747251	0.94256388	0.32135777	-0.62280885	0.75380575	-0.23999038	-0.32356265	0.8937983	0.2864196
